<?xml version="1.0" encoding="utf-8"?>
<!-- Generator: Adobe Illustrator 19.2.1, SVG Export Plug-In . SVG Version: 6.00 Build 0)  -->
<svg version="1.1" id="Layer_1" xmlns="http://www.w3.org/2000/svg" xmlns:xlink="http://www.w3.org/1999/xlink" x="0px" y="0px"
	 viewBox="0 0 224 48" style="enable-background:new 0 0 224 48;" xml:space="preserve">
<style type="text/css">
	.st0{fill:none;}
	.st1{fill:#FFFFFF;}
	.st2{fill:none;stroke:#FFFFFF;stroke-width:2;stroke-linecap:round;stroke-miterlimit:10;stroke-dasharray:0,4,12,4,50,4;}
	.st3{fill:none;stroke:#FFFFFF;stroke-width:2;stroke-linecap:round;stroke-miterlimit:10;stroke-dasharray:14,4,12,4,50,4;}
	.st4{fill:none;stroke:#FFFFFF;stroke-width:2;stroke-linecap:round;stroke-miterlimit:10;stroke-dasharray:7,4,5,4,50,4;}
</style>
<g>
	<path class="st0" d="M217.8,48H6.2C2.8,48,0,45.2,0,41.8V6.2C0,2.8,2.8,0,6.2,0h211.6c3.4,0,6.2,2.8,6.2,6.2v35.6
		C224,45.2,221.2,48,217.8,48z"/>
</g>
<g>
	<g>
		<path class="st1" d="M64.2,17.3h5c4.2,0,7,2.8,7,6.7s-2.8,6.7-7,6.7h-5V17.3z M69.2,28.6c2.9,0,4.6-2.1,4.6-4.6
			c0-2.6-1.6-4.6-4.6-4.6h-2.6v9.2C66.6,28.6,69.2,28.6,69.2,28.6z"/>
		<path class="st1" d="M77.7,25.8c0-2.8,1.9-5.1,5-5.1s5,2.3,5,5.1s-1.9,5.1-5,5.1S77.7,28.6,77.7,25.8z M85.5,25.8
			c0-1.7-1-3.2-2.8-3.2s-2.8,1.5-2.8,3.2s1,3.2,2.8,3.2C84.5,29.1,85.5,27.6,85.5,25.8z"/>
		<path class="st1" d="M96,23.6l-2.2,7.1h-2.2l-3-9.7h2.2l2,7l2.3-7h1.8l2.3,7l2-7h2.2l-3,9.7h-2.2L96,23.6z"/>
		<path class="st1" d="M111.4,24.6c0-1.5-0.8-2-1.9-2s-2,0.6-2.5,1.3v6.7h-2.1V21h2.1v1.3c0.6-0.8,1.9-1.6,3.4-1.6
			c2.1,0,3.1,1.1,3.1,3.1v6.8h-2.1V24.6z"/>
		<path class="st1" d="M116.2,17.3h2.1v13.3h-2.1V17.3z"/>
		<path class="st1" d="M120.4,25.8c0-2.8,1.9-5.1,5-5.1s5,2.3,5,5.1s-1.9,5.1-5,5.1C122.3,30.9,120.4,28.6,120.4,25.8z M128.2,25.8
			c0-1.7-1-3.2-2.8-3.2s-2.8,1.5-2.8,3.2s1,3.2,2.8,3.2C127.2,29.1,128.2,27.6,128.2,25.8z"/>
		<path class="st1" d="M138.4,29.6c-0.7,0.8-1.8,1.3-3.1,1.3c-1.6,0-3.4-1.1-3.4-3.2c0-2.2,1.8-3.1,3.4-3.1c1.3,0,2.4,0.4,3.1,1.2
			v-1.4c0-1.1-0.9-1.8-2.3-1.8c-1.1,0-2,0.4-2.9,1.2l-0.9-1.5c1.1-1.1,2.5-1.6,4.1-1.6c2.1,0,4,0.9,4,3.5v6.4h-2.1L138.4,29.6
			L138.4,29.6z M138.4,27c-0.5-0.7-1.4-1-2.3-1c-1.2,0-2.1,0.7-2.1,1.7s0.9,1.7,2.1,1.7c0.9,0,1.8-0.3,2.3-1V27z"/>
		<path class="st1" d="M150,29.4c-0.7,1-1.9,1.6-3.1,1.6c-2.5,0-4.3-1.9-4.3-5.1c0-3.1,1.8-5.1,4.3-5.1c1.2,0,2.3,0.6,3.1,1.6v-5
			h2.1v13.3H150V29.4z M150,23.9c-0.5-0.7-1.5-1.3-2.5-1.3c-1.7,0-2.7,1.3-2.7,3.2c0,1.9,1.1,3.2,2.7,3.2c1,0,2-0.6,2.5-1.3V23.9z"
			/>
		<path class="st1" d="M160,17.3h9.1v2.1h-6.8v3.5h6.7V25h-6.7v5.8H160V17.3z"/>
		<path class="st1" d="M171,18.5c0-0.7,0.6-1.3,1.3-1.3s1.3,0.6,1.3,1.3s-0.6,1.3-1.3,1.3S171,19.3,171,18.5z M171.2,21h2.1v9.7
			h-2.1V21z"/>
		<path class="st1" d="M176,17.3h2.1v13.3H176V17.3z"/>
		<path class="st1" d="M185.2,20.8c2.9,0,4.8,2.2,4.8,5.3v0.5h-7.5c0.2,1.5,1.3,2.7,3.1,2.7c0.9,0,2.1-0.4,2.7-1.1l1,1.4
			c-1,0.9-2.4,1.4-3.9,1.4c-2.9,0-5.1-2-5.1-5.1C180.3,23,182.3,20.8,185.2,20.8z M182.4,25.1h5.4c0-1.1-0.8-2.6-2.7-2.6
			C183.4,22.5,182.5,23.9,182.4,25.1z"/>
	</g>
	<g>
		<g>
			<line class="st2" x1="39" y1="20.3" x2="39" y2="35"/>
			<polyline class="st3" points="43.4,30.6 39,35 34.7,30.6 			"/>
		</g>
		<polyline class="st4" points="46.5,35 49.6,35 49.6,13.8 28.4,13.8 28.4,35 31.5,35 		"/>
	</g>
</g>
</svg>
