<?xml version="1.0" encoding="utf-8"?>
<!-- Generator: Adobe Illustrator 19.2.1, SVG Export Plug-In . SVG Version: 6.00 Build 0)  -->
<svg version="1.1" id="Layer_1" xmlns="http://www.w3.org/2000/svg" xmlns:xlink="http://www.w3.org/1999/xlink" x="0px" y="0px"
	 viewBox="0 0 224 48" style="enable-background:new 0 0 224 48;" xml:space="preserve">
<style type="text/css">
	.st0{fill:none;}
	.st1{fill:#FFFFFF;}
	.st2{fill:#B7A7D5;}
</style>
<path class="st0" d="M6.1,0h211.8c3.4,0,6.1,2.7,6.1,6v36c0,3.3-2.7,6-6.1,6H6.1C2.7,48,0,45.3,0,42V6C0,2.7,2.7,0,6.1,0z"/>
<path class="st1" d="M39.2,16.8l-8.6-4.4c-1-0.5-2.4-0.5-3.3,0l-8.6,4.4c-1,0.5-1.8,1.7-1.8,2.8v8.9c0,1.1,0.7,2.3,1.8,2.8l4.3,2.2
	c0.7,0.4,1.6,0.1,2-0.6c0.4-0.7,0.1-1.6-0.6-2l-4.3-2.2l-0.2-0.2l0-8.8l0.2-0.2l8.6-4.4c0.1-0.1,0.4-0.1,0.5,0l8.6,4.4l0.2,0.2
	l0,8.8l-0.2,0.2l-4.3,2.2c-0.7,0.4-1,1.3-0.6,2c0.3,0.5,0.8,0.8,1.3,0.8c0.2,0,0.5-0.1,0.7-0.2l4.3-2.2c1-0.5,1.8-1.7,1.8-2.8v-8.9
	C40.9,18.5,40.2,17.4,39.2,16.8"/>
<path class="st1" d="M34.5,26.6c0.6-0.6,0.6-1.5,0-2.1L30,19.9c-0.1-0.1-0.3-0.2-0.5-0.3c-0.4-0.2-0.8-0.2-1.1,0
	c-0.2,0.1-0.3,0.2-0.5,0.3l-4.5,4.5c-0.6,0.6-0.6,1.5,0,2.1c0.3,0.3,0.7,0.4,1.1,0.4s0.8-0.1,1.1-0.4l1.9-1.9v9.9
	c0,0.8,0.7,1.5,1.5,1.5s1.5-0.7,1.5-1.5v-9.9l1.9,1.9c0.3,0.3,0.7,0.4,1.1,0.4S34.2,26.9,34.5,26.6"/>
<path class="st2" d="M124,31.6c0.5,0,1.2-0.1,1.5-0.1v-1.4c-0.3,0.1-0.7,0.1-1.1,0.1c-1.2,0-1.6-0.5-1.6-1.6v-6h2.7v-1.4h-2.7v-3.7
	h-1.7v3.7h-1.8v1.4h1.8V29C121.2,30.8,121.9,31.6,124,31.6z M132,31.7c2.5,0,4.8-1.8,4.8-5.4c0-3.5-2.3-5.4-4.8-5.4
	c-2.5,0-4.8,1.8-4.8,5.4C127.2,29.9,129.5,31.7,132,31.7z M132,30.3c-2.1,0-3.1-1.8-3.1-3.9c0-2.3,1.1-3.9,3.1-3.9
	c2,0,3.1,1.8,3.1,3.9C135.1,28.7,133.9,30.3,132,30.3z M144,31.5h1.7v-6.8h7.4v6.8h1.7V17.1h-1.7v6h-7.4v-6H144V31.5z M162.2,31.7
	c1.9,0,3.2-0.8,4.2-2.2l-1-0.9c-0.8,1.1-1.6,1.7-3.1,1.7c-1.7,0-3-1.2-3.1-3.6h7.3v-0.4c0-3.7-1.9-5.4-4.3-5.4
	c-2.2,0-4.7,1.6-4.7,5.4C157.5,29.9,159.7,31.7,162.2,31.7z M159.2,25.5c0.2-2.1,1.5-3.1,2.9-3.1c1.7,0,2.6,1.2,2.7,3.1H159.2z
	 M168.9,31.5h1.7v-6.6c0.8-1.5,2-2.3,3.6-2.3l0.5,0l0.1-1.6h-0.2c-2,0-3.2,0.9-4,2.1h0v-1.9h-1.7V31.5z M180.9,31.7
	c2.5,0,4.8-1.8,4.8-5.4c0-3.5-2.3-5.4-4.8-5.4c-2.5,0-4.8,1.8-4.8,5.4C176.1,29.9,178.4,31.7,180.9,31.7z M180.9,30.3
	c-2.1,0-3.1-1.8-3.1-3.9c0-2.3,1.1-3.9,3.1-3.9c2,0,3.1,1.8,3.1,3.9C184,28.7,182.8,30.3,180.9,30.3z M188,31.5h1.7v-3.2l2-2.2
	l3,5.4h1.8l-3.7-6.6l3.4-3.7h-1.9l-4.6,5.1v-9.3H188V31.5z M201.5,31.7c1.7,0,3-0.9,3.9-1.7v1.5h1.7V21.2h-1.7v7.4
	c-1.1,1-2.1,1.7-3.3,1.7c-1.3,0-1.9-0.6-1.9-2v-7.1h-1.7v7.4C198.5,30.6,199.5,31.7,201.5,31.7z"/>
<path class="st1" d="M53.2,31.5H57c4.6,0,7.3-2.4,7.3-7.3c0-4.8-2.6-7.2-7.3-7.2h-3.8V31.5z M54.9,30V18.6h2.3
	c3.5,0,5.4,1.7,5.4,5.6c0,4-1.9,5.7-5.3,5.7H54.9z M70.9,31.7c1.9,0,3.2-0.8,4.2-2.2l-1-0.9c-0.8,1.1-1.6,1.7-3.1,1.7
	c-1.7,0-3-1.2-3.1-3.6h7.3v-0.4c0-3.7-1.9-5.4-4.3-5.4c-2.2,0-4.7,1.6-4.7,5.4C66.3,29.9,68.5,31.7,70.9,31.7z M68,25.5
	c0.2-2.1,1.5-3.1,2.9-3.1c1.7,0,2.6,1.2,2.7,3.1H68z M77.6,35.4h1.7v-5.2c0.9,0.9,1.9,1.5,3.2,1.5c2.5,0,4.4-1.7,4.4-5.3
	S85,21,82.7,21c-1.5,0-2.6,0.8-3.4,1.6v-1.4h-1.7V35.4z M82.3,30.3c-1.1,0-2.1-0.5-3-1.6V24c0.9-0.9,1.8-1.6,3-1.6
	c1.7,0,2.9,1.3,2.9,3.9C85.2,29.1,84.1,30.3,82.3,30.3z M89.4,31.5h1.7V17.1h-1.7V31.5z M98.4,31.7c2.5,0,4.8-1.8,4.8-5.4
	c0-3.5-2.3-5.4-4.8-5.4c-2.5,0-4.8,1.8-4.8,5.4C93.6,29.9,95.9,31.7,98.4,31.7z M98.4,30.3c-2.1,0-3.1-1.8-3.1-3.9
	c0-2.3,1.1-3.9,3.1-3.9c2,0,3.1,1.8,3.1,3.9C101.5,28.7,100.3,30.3,98.4,30.3z M106.1,35.5c2,0,2.8-1,3.5-2.8l4.4-11.5h-1.7l-3,8.3
	h0l-3-8.3h-1.8l4,10.4l-0.4,1c-0.4,1-0.9,1.5-2,1.5c-0.7,0-1.2-0.1-1.5-0.2l-0.4,1.3C104.6,35.3,105.2,35.5,106.1,35.5z"/>
</svg>
