<?xml version="1.0" encoding="utf-8"?>
<!-- Generator: Adobe Illustrator 19.2.1, SVG Export Plug-In . SVG Version: 6.00 Build 0)  -->
<svg version="1.1" id="Layer_1" xmlns="http://www.w3.org/2000/svg" xmlns:xlink="http://www.w3.org/1999/xlink" x="0px" y="0px"
	 viewBox="0 0 224 48" style="enable-background:new 0 0 224 48;" xml:space="preserve">
<style type="text/css">
	.st0{fill:none;}
	.st1{fill:#FFFFFF;}
	.st2{fill:none;stroke:#0F9BD7;stroke-width:2;stroke-linecap:round;stroke-miterlimit:10;}
</style>
<g>
	<path class="st0" d="M217.8,48H6.2C2.8,48,0,45.2,0,41.8V6.2C0,2.8,2.8,0,6.2,0h211.6c3.4,0,6.2,2.8,6.2,6.2v35.6
		C224,45.2,221.2,48,217.8,48z"/>
</g>
<g>
	<g>
		<g>
			<path class="st1" d="M66.3,27.5c0.9,1,2.3,1.9,4.2,1.9c2.4,0,3.1-1.3,3.1-2.3c0-1.6-1.6-2-3.4-2.5c-2.1-0.6-4.5-1.2-4.5-3.8
				c0-2.2,2-3.7,4.6-3.7c2,0,3.6,0.7,4.7,1.9l-1,1.2c-1-1.1-2.4-1.6-3.9-1.6c-1.6,0-2.7,0.9-2.7,2.1c0,1.3,1.5,1.7,3.2,2.2
				c2.2,0.6,4.7,1.3,4.7,4.1c0,1.9-1.3,3.9-4.9,3.9c-2.3,0-4-0.9-5.1-2.1L66.3,27.5z"/>
			<path class="st1" d="M83.8,29.6c-0.8,0.9-1.9,1.3-3.2,1.3c-1.6,0-3.4-1.1-3.4-3.2c0-2.2,1.7-3.2,3.4-3.2c1.3,0,2.4,0.4,3.2,1.3
				v-1.7c0-1.3-1-2-2.4-2c-1.2,0-2.1,0.4-3,1.3l-0.7-1c1-1.1,2.3-1.6,3.9-1.6c2,0,3.7,0.9,3.7,3.3v6.6h-1.5V29.6z M83.8,26.8
				c-0.6-0.8-1.6-1.2-2.7-1.2c-1.4,0-2.4,0.9-2.4,2.1s1,2.1,2.4,2.1c1.1,0,2.1-0.4,2.7-1.2V26.8z"/>
			<path class="st1" d="M88.3,17.3h1.5v13.3h-1.5V17.3z"/>
			<path class="st1" d="M97,20.8c2.9,0,4.6,2.3,4.6,5.2v0.4h-7.8c0.1,1.8,1.4,3.3,3.5,3.3c1.1,0,2.2-0.4,3-1.2l0.7,1
				c-1,1-2.3,1.5-3.8,1.5c-2.9,0-4.9-2.1-4.9-5.1C92.2,23,94.2,20.8,97,20.8z M93.8,25.2h6.3c0-1.4-1-3.2-3.2-3.2
				C94.9,22,93.9,23.8,93.8,25.2z"/>
			<path class="st1" d="M104,28.3c0.6,0.7,1.9,1.4,3.2,1.4c1.5,0,2.3-0.7,2.3-1.6c0-1.1-1.2-1.4-2.5-1.7c-1.6-0.4-3.5-0.8-3.5-2.8
				c0-1.5,1.3-2.8,3.6-2.8c1.6,0,2.8,0.6,3.6,1.4l-0.7,1c-0.6-0.7-1.6-1.2-2.9-1.2s-2.1,0.6-2.1,1.5s1.1,1.2,2.4,1.5
				c1.7,0.4,3.6,0.9,3.6,3c0,1.6-1.3,2.9-3.8,2.9c-1.6,0-2.9-0.5-3.9-1.5L104,28.3z"/>
			<path class="st1" d="M113.8,22.3h-1.6V21h1.6v-0.7c0-2,1.1-3.1,2.8-3.1c0.6,0,1.1,0.1,1.5,0.3l-0.4,1.1c-0.2-0.1-0.5-0.2-0.9-0.2
				c-1,0-1.5,0.7-1.5,1.9V21h2v1.3h-2v8.3h-1.5V22.3z"/>
			<path class="st1" d="M118.4,25.8c0-2.8,1.8-5.1,4.8-5.1s4.8,2.3,4.8,5.1s-1.8,5.1-4.8,5.1S118.4,28.6,118.4,25.8z M126.4,25.8
				c0-2-1.1-3.7-3.2-3.7s-3.2,1.8-3.2,3.7c0,2,1.2,3.7,3.2,3.7S126.4,27.8,126.4,25.8z"/>
			<path class="st1" d="M130.4,21h1.5v1.6c0.8-1,1.9-1.8,3.2-1.8v1.5c-0.2,0-0.4-0.1-0.6-0.1c-0.9,0-2.2,0.8-2.6,1.5v6.8h-1.5
				L130.4,21L130.4,21z"/>
			<path class="st1" d="M141.3,20.8c1.8,0,2.8,0.7,3.5,1.7l-1,0.9c-0.6-0.9-1.5-1.3-2.5-1.3c-2.1,0-3.3,1.6-3.3,3.7s1.3,3.7,3.3,3.7
				c1,0,1.8-0.4,2.5-1.3l1,0.9c-0.7,1-1.8,1.7-3.5,1.7c-2.9,0-4.8-2.2-4.8-5.1C136.5,23,138.4,20.8,141.3,20.8z"/>
			<path class="st1" d="M151.1,20.8c2.9,0,4.6,2.3,4.6,5.2v0.4H148c0.1,1.8,1.4,3.3,3.5,3.3c1.1,0,2.2-0.4,3-1.2l0.7,1
				c-1,1-2.3,1.5-3.8,1.5c-2.9,0-4.9-2.1-4.9-5.1C146.4,23,148.4,20.8,151.1,20.8z M148,25.2h6.3c0-1.4-1-3.2-3.2-3.2
				C149.1,22,148,23.8,148,25.2z"/>
			<path class="st1" d="M171.8,27.7H165l-1.2,3H162l5.4-13.3h2.1l5.4,13.3H173L171.8,27.7z M165.5,26.2h5.8l-2.9-7.4L165.5,26.2z"/>
			<path class="st1" d="M176.5,34.4V21h1.5v1.4c0.7-1,1.9-1.7,3.3-1.7c2.5,0,4.3,1.9,4.3,5.1c0,3.1-1.8,5.1-4.3,5.1
				c-1.3,0-2.5-0.6-3.3-1.7v5.1h-1.5V34.4z M180.9,22.1c-1.2,0-2.4,0.7-2.9,1.5V28c0.5,0.8,1.7,1.6,2.9,1.6c1.9,0,3.1-1.6,3.1-3.7
				C184,23.7,182.8,22.1,180.9,22.1z"/>
			<path class="st1" d="M188,34.4V21h1.5v1.4c0.7-1,1.9-1.7,3.3-1.7c2.5,0,4.3,1.9,4.3,5.1c0,3.1-1.8,5.1-4.3,5.1
				c-1.3,0-2.5-0.6-3.3-1.7v5.1H188V34.4z M192.4,22.1c-1.2,0-2.4,0.7-2.9,1.5V28c0.5,0.8,1.7,1.6,2.9,1.6c1.9,0,3.1-1.6,3.1-3.7
				C195.5,23.7,194.3,22.1,192.4,22.1z"/>
		</g>
		<path class="st1" d="M38.3,15.7c1-1,2.3-1.6,3.7-1.6c1.9,0,3.6,1.1,4.6,2.7c0.8-0.4,1.7-0.5,2.6-0.5c3.5,0,6.4,2.9,6.4,6.4
			s-2.8,6.4-6.4,6.4c-0.4,0-0.8,0-1.3-0.1c-0.8,1.4-2.3,2.4-4.1,2.4c-0.7,0-1.4-0.2-2-0.5c-0.8,1.9-2.7,3.2-4.9,3.2
			c-2.3,0-4.2-1.4-5-3.5c-0.3,0.1-0.7,0.1-1,0.1c-2.7,0-4.9-2.2-4.9-5c0-1.8,1-3.5,2.5-4.3C28.2,20.8,28,20,28,19.2
			c0-3.2,2.6-5.7,5.7-5.7C35.6,13.5,37.3,14.4,38.3,15.7"/>
	</g>
	<line class="st2" x1="38.8" y1="11" x2="38.8" y2="27.2"/>
	<polyline class="st2" points="43.1,22.8 38.8,27.2 34.4,22.8 	"/>
	<path class="st2" d="M42.6,12.7"/>
</g>
</svg>
